<?xml version="1.0" encoding="utf-8"?>
<!-- Generator: Adobe Illustrator 25.2.1, SVG Export Plug-In . SVG Version: 6.00 Build 0)  -->
<svg version="1.1" id="Layer_1" xmlns="http://www.w3.org/2000/svg" xmlns:xlink="http://www.w3.org/1999/xlink" x="0px" y="0px"
	 viewBox="0 0 24 24" style="enable-background:new 0 0 24 24;" xml:space="preserve">
<style type="text/css">
	.st0{fill:#FFFFFF;}
</style>
<g id="Layer_2_1_">
	<g id="Layer_1-2">
		<path id="linkedin" class="st0" d="M22.2,0H1.8C0.8,0,0,0.8,0,1.7c0,0,0,0,0,0v20.5c0,1,0.8,1.7,1.8,1.7c0,0,0,0,0,0h20.4
			c1,0,1.8-0.8,1.8-1.7c0,0,0,0,0,0V1.7C24,0.8,23.2,0,22.2,0C22.2,0,22.2,0,22.2,0z M7.1,20.5H3.6V9h3.6V20.5z M5.3,7.5
			c-1.1,0-2.1-0.9-2.1-2.1c0-1.1,0.9-2.1,2.1-2.1c1.1,0,2.1,0.9,2.1,2.1l0,0C7.4,6.5,6.5,7.4,5.3,7.5L5.3,7.5z M20.5,20.5h-3.6v-5.6
			c0-1.3,0-3-1.9-3s-2.1,1.4-2.1,2.9v5.7H9.4V9h3.4v1.6l0,0c0.7-1.2,2-1.9,3.4-1.9c3.6,0,4.3,2.4,4.3,5.5L20.5,20.5z"/>
	</g>
</g>
</svg>
